<svg width="75" height="75" viewBox="0 0 75 75" fill="none" xmlns="http://www.w3.org/2000/svg">
<path d="M70.1697 0.14624H4.83114C2.16752 0.14624 0 2.31319 0 4.97738V58.0879C0 60.7515 2.16752 62.9185 4.83114 62.9185H8.9619C9.56787 62.9185 10.0594 62.4275 10.0594 61.821C10.0594 61.215 9.56787 60.7235 8.9619 60.7235H4.83114C3.37774 60.7235 2.19556 59.5413 2.19556 58.0879V53.924H42.1854V55.8157H41.315C40.1243 55.8157 39.1561 56.7838 39.1561 57.9746V60.7235H15.6355C15.0296 60.7235 14.5381 61.215 14.5381 61.821C14.5381 62.4275 15.0296 62.9185 15.6355 62.9185H26.1893V66.8553H22.8751C20.6641 66.8553 18.8657 68.6543 18.8657 70.8647V73.2359C18.8657 74.2447 19.6862 75.0653 20.695 75.0653H54.2217C55.2305 75.0653 56.0511 74.2447 56.0511 73.2359V70.8647C56.0511 68.6543 54.2526 66.8553 52.0416 66.8553H48.7274V65.4677H69.0196C70.2098 65.4677 71.1779 64.4995 71.1779 63.3087V62.792C73.3174 62.2953 74.9167 60.3756 74.9167 58.0879L74.9997 4.97681C75.0003 2.31319 72.8333 0.14624 70.1697 0.14624ZM41.3517 51.3107V46.0492H68.983V51.3107H41.3517ZM44.3804 43.8537V41.5443H65.9537V43.8537H44.3804ZM65.9537 53.5057V55.8157H44.3804V53.5057H65.9537ZM28.3843 62.9185H39.1561V63.3093C39.1561 64.4995 40.1243 65.4677 41.315 65.4677H46.5324V66.8553H28.3843V62.9185ZM52.0422 69.0508C53.0424 69.0508 53.8561 69.8645 53.8561 70.8647V72.8703H21.0606V70.8647C21.0606 69.8645 21.8749 69.0508 22.8751 69.0508H52.0422ZM68.983 63.2721H41.3517V58.0112H68.983V63.2721ZM72.7218 58.0879C72.7218 59.1511 72.0878 60.0672 71.1785 60.4832V57.974C71.1785 56.7838 70.2098 55.8157 69.0196 55.8157H68.1493V53.924H72.7218V58.0879ZM72.7218 51.729H71.1425C71.1648 51.6048 71.1785 46.0126 71.1785 46.0126C71.1785 44.8219 70.2098 43.8537 69.0196 43.8537H68.1493V41.5443H69.0196C70.2098 41.5443 71.1785 40.5755 71.1785 39.3853V34.0506C71.1785 32.8604 70.2098 31.8917 69.0196 31.8917H62.8197C62.2132 31.8917 61.7222 32.3832 61.7222 32.9898C61.7222 33.5957 62.2132 34.0873 62.8197 34.0873H68.983V39.3487H41.3517V34.0873H55.9899C56.5964 34.0873 57.0873 33.5957 57.0873 32.9898C57.0873 32.3832 56.5964 31.8917 55.9899 31.8917H41.315C40.1243 31.8917 39.1561 32.8604 39.1561 34.0506V39.3853C39.1561 40.5755 40.1243 41.5443 41.315 41.5443H42.1854V43.8537H41.315C40.1243 43.8537 39.1561 44.8224 39.1561 46.0126C39.1561 46.0126 39.1698 51.6048 39.1922 51.729H2.19556V15.0774H72.7218V51.729ZM72.7218 12.8818H2.27624V4.97681C2.27624 3.52398 3.45842 2.3418 4.91182 2.3418H70.0862C71.5396 2.3418 72.7218 3.52398 72.7218 4.97738V12.8818Z" fill="#EF8B54"/>
</svg>
