<svg width="75" height="75" viewBox="0 0 75 75" fill="none" xmlns="http://www.w3.org/2000/svg">
<path d="M70.1637 0H4.8357C2.16923 0 0 2.16923 0 4.8357V70.1637C0 72.8302 2.16923 75 4.8357 75H70.1637C72.8302 75 75 72.8302 75 70.1637V53.5183C75 52.9112 74.5079 52.4191 73.9008 52.4191C73.2943 52.4191 72.8022 52.9112 72.8022 53.5183V70.1637C72.8022 71.6188 71.6188 72.8022 70.1637 72.8022H4.8357C3.38116 72.8022 2.19784 71.6188 2.19784 70.1637V14.9471H72.8022V46.7308C72.8022 47.3373 73.2943 47.8294 73.9014 47.8294C74.5079 47.8294 75 47.3373 75 46.7308V4.8357C75 2.16923 72.8308 0 70.1637 0V0ZM72.8022 12.7493H2.19784V4.8357C2.19784 3.38116 3.38116 2.19784 4.8357 2.19784H70.1637C71.6188 2.19784 72.8022 3.38116 72.8022 4.8357V12.7493Z" fill="#EF8B54"/>
</svg>
