<svg width="81" height="62" viewBox="0 0 81 62" fill="none" xmlns="http://www.w3.org/2000/svg">
<path d="M66.5046 59.387L65.4482 48.811C69.8103 48.1214 73.1613 44.3443 73.1613 39.7902V22.8064H67.9355V21.0011C67.9355 19.2251 66.9595 17.6303 65.3902 16.8125C66.9505 15.3791 67.9355 13.3295 67.9355 11.0483V8.43539C67.9355 4.11223 64.4199 0.59668 60.0968 0.59668C55.7736 0.59668 52.2581 4.11223 52.2581 8.43539V11.0483C52.2581 14.4305 54.4149 17.3101 57.4226 18.4073L50.4107 25.4193H43.0842C42.9381 23.2414 41.4422 21.343 39.323 20.737L33.9677 19.2085V16.875C35.567 15.4391 36.5806 13.3633 36.5806 11.0483V8.43539C36.5806 4.11223 33.0651 0.59668 28.7419 0.59668C24.4188 0.59668 20.9032 4.11223 20.9032 8.43539V11.0483C20.9032 13.362 21.9169 15.4378 23.5161 16.875V19.2098L18.1608 20.7382C15.9294 21.3742 14.371 23.4411 14.371 25.7631V30.6451H9.14516V38.4838H11.7581V59.387H0V61.9999H81V59.387H66.5046ZM54.871 38.4838V32.4925L64.1284 23.235C64.7976 22.5659 65.1956 21.667 65.2849 20.7293C65.2964 20.8205 65.3226 20.9066 65.3226 21.0011V37.1773C65.3226 39.3379 63.5638 41.0967 61.4032 41.0967H50.9516V38.4838H54.871ZM50.9516 48.9354H57.6083L58.6532 59.387H50.9516V48.9354ZM60.2339 48.9354H62.8341L63.879 59.387H61.2788L60.2339 48.9354ZM67.9355 37.1773V25.4193H70.5484V39.7902C70.5484 43.3919 67.6178 46.3225 64.0161 46.3225H50.9516V43.7096H61.4032C65.0049 43.7096 67.9355 40.779 67.9355 37.1773ZM54.871 11.0483V8.43539C54.871 5.55329 57.2147 3.20958 60.0968 3.20958C62.9789 3.20958 65.3226 5.55329 65.3226 8.43539V11.0483C65.3226 13.9304 62.9789 16.2741 60.0968 16.2741C57.2147 16.2741 54.871 13.9304 54.871 11.0483ZM51.4926 28.0322L60.209 19.3157C60.4821 19.0427 60.8597 18.887 61.245 18.887C62.0526 18.887 62.7097 19.5441 62.7097 20.3517C62.7097 20.737 62.554 21.1146 62.281 21.3876L53.0236 30.6451H39.1935C38.4727 30.6451 37.8871 30.0595 37.8871 29.3386C37.8871 28.6178 38.4727 28.0322 39.1935 28.0322H51.4926ZM23.5161 8.43539C23.5161 5.55329 25.8598 3.20958 28.7419 3.20958C31.624 3.20958 33.9677 5.55329 33.9677 8.43539V11.0483C33.9677 13.9304 31.624 16.2741 28.7419 16.2741C25.8598 16.2741 23.5161 13.9304 23.5161 11.0483V8.43539ZM28.7419 18.887C29.6593 18.887 30.5358 18.7199 31.3548 18.4296V19.833C31.0308 20.3332 30.1307 21.4999 28.7419 21.4999C27.3532 21.4999 26.4531 20.3332 26.129 19.833V18.4296C26.9481 18.7199 27.8246 18.887 28.7419 18.887ZM16.9839 25.7631C16.9839 24.6015 17.764 23.5693 18.8785 23.2503L24.2606 21.713C25.0184 22.7005 26.4933 24.1128 28.7419 24.1128C30.9906 24.1128 32.4655 22.7005 33.2233 21.7117L38.6054 23.2491C39.6063 23.5355 40.3042 24.4056 40.4439 25.418H39.1935C37.0329 25.418 35.2742 27.1767 35.2742 29.3373C35.2742 29.7973 35.368 30.2336 35.5147 30.6438H16.9839V25.7631ZM11.7581 33.258H52.2581V35.8709H11.7581V33.258ZM14.371 43.7096H18.2903V41.0967H14.371V38.4838H48.3387V41.0967H20.9032V43.7096H48.3387V59.387H45.227L42.6141 54.1612H20.0956L17.4827 59.387H14.371V43.7096ZM42.3053 59.387H20.4044L21.7108 56.7741H40.9988L42.3053 59.387Z" fill="#1D1D1D"/>
</svg>
