<svg width="14" height="14" viewBox="0 0 14 14" fill="none" xmlns="http://www.w3.org/2000/svg">
<path fill-rule="evenodd" clip-rule="evenodd" d="M6.21895 1.45829C6.00642 1.45829 5.83412 1.286 5.83412 1.07346C5.83412 0.860916 6.00642 0.688619 6.21895 0.688619L12.5893 0.688618C12.7164 0.688619 12.8291 0.750225 12.8992 0.845205C12.9935 0.915348 13.0545 1.0276 13.0545 1.15412L13.0545 7.5245C13.0545 7.73704 12.8822 7.90934 12.6697 7.90934C12.4571 7.90934 12.2848 7.73704 12.2848 7.5245L12.2848 1.85761L0.823379 13.3191C0.673091 13.4693 0.429427 13.4693 0.279138 13.3191C0.12885 13.1688 0.12885 12.9251 0.279138 12.7748L11.5957 1.45829L6.21895 1.45829Z" fill="white"/>
</svg>
